<svg width="200" height="200" viewBox="0 0 200 200" fill="none" xmlns="http://www.w3.org/2000/svg">
  <circle cx="100" cy="100" r="95" fill="#F9FAFB" stroke="#E5E7EB" stroke-width="2"/>
  <path d="M100 50C72.3858 50 50 72.3858 50 100C50 127.614 72.3858 150 100 150C127.614 150 150 127.614 150 100C150 72.3858 127.614 50 100 50ZM100 140C77.9086 140 60 122.091 60 100C60 77.9086 77.9086 60 100 60C122.091 60 140 77.9086 140 100C140 122.091 122.091 140 100 140Z" fill="#D1D5DB"/>
  <path d="M85 85L115 115M115 85L85 115" stroke="#9CA3AF" stroke-width="6" stroke-linecap="round"/>
  <path d="M70 130C70 130 80 140 100 140C120 140 130 130 130 130" stroke="#9CA3AF" stroke-width="6" stroke-linecap="round"/>
</svg>